<svg width="140" height="141" xmlns="http://www.w3.org/2000/svg" xmlns:xlink="http://www.w3.org/1999/xlink" overflow="hidden"><defs><clipPath id="clip0"><rect x="997" y="373" width="140" height="141"/></clipPath></defs><g clip-path="url(#clip0)" transform="translate(-997 -373)"><path d="M997 443.5C997 405.116 1028.34 374 1067 374 1105.66 374 1137 405.116 1137 443.5 1137 481.884 1105.66 513 1067 513 1028.34 513 997 481.884 997 443.5Z" fill="#70AD47" fill-rule="evenodd"/><path d="M1041.44 470.08C1040 468.645 1040 466.318 1041.44 464.883L1095.04 411.284C1096.47 409.849 1098.8 409.849 1100.24 411.284L1110.63 421.679C1112.07 423.114 1112.07 425.441 1110.63 426.876L1057.03 480.475C1055.6 481.91 1053.27 481.91 1051.83 480.475Z" fill="#FFFFFF" fill-rule="evenodd"/><path d="M1033.2 436.215C1034.63 434.788 1036.94 434.788 1038.37 436.215L1067.14 464.989C1068.57 466.416 1068.57 468.729 1067.14 470.156L1056.81 480.49C1055.38 481.917 1053.07 481.917 1051.64 480.49L1022.87 451.716C1021.44 450.289 1021.44 447.976 1022.87 446.549Z" fill="#FFFFFF" fill-rule="evenodd"/></g></svg>