<svg width="140" height="141" xmlns="http://www.w3.org/2000/svg" xmlns:xlink="http://www.w3.org/1999/xlink" overflow="hidden"><defs><clipPath id="clip0"><rect x="789" y="373" width="140" height="141"/></clipPath></defs><g clip-path="url(#clip0)" transform="translate(-789 -373)"><path d="M789 443.5C789 405.116 820.34 374 859 374 897.66 374 929 405.116 929 443.5 929 481.884 897.66 513 859 513 820.34 513 789 481.884 789 443.5Z" fill="#FF0000" fill-rule="evenodd"/><path d="M819.919 472.222C818.483 470.787 818.483 468.46 819.919 467.024L882.603 404.34C884.039 402.904 886.365 402.904 887.801 404.34L898.195 414.734C899.63 416.169 899.63 418.496 898.195 419.932L835.51 482.616C834.075 484.052 831.748 484.052 830.313 482.616Z" fill="#FFFFFF" fill-rule="evenodd"/><path d="M830.313 404.34C831.748 402.904 834.075 402.904 835.51 404.34L898.195 467.024C899.63 468.46 899.63 470.787 898.195 472.222L887.801 482.616C886.365 484.052 884.039 484.052 882.603 482.616L819.919 419.932C818.483 418.496 818.483 416.169 819.919 414.734Z" fill="#FFFFFF" fill-rule="evenodd"/></g></svg>