<svg width="140" height="141" xmlns="http://www.w3.org/2000/svg" xmlns:xlink="http://www.w3.org/1999/xlink" overflow="hidden"><defs><clipPath id="clip0"><rect x="581" y="373" width="140" height="141"/></clipPath></defs><g clip-path="url(#clip0)" transform="translate(-581 -373)"><path d="M581 443.5C581 405.116 612.34 374 651 374 689.66 374 721 405.116 721 443.5 721 481.884 689.66 513 651 513 612.34 513 581 481.884 581 443.5Z" fill="#70AD47" fill-rule="evenodd"/><path d="M603 435.833C603 433.716 604.716 432 606.833 432L695.167 432C697.284 432 699 433.716 699 435.833L699 451.167C699 453.284 697.284 455 695.167 455L606.833 455C604.716 455 603 453.284 603 451.167Z" fill="#FFFFFF" fill-rule="evenodd"/><path d="M658.333 395C660.358 395 662 396.642 662 398.667L662 487.333C662 489.358 660.358 491 658.333 491L643.667 491C641.642 491 640 489.358 640 487.333L640 398.667C640 396.642 641.642 395 643.667 395Z" fill="#FFFFFF" fill-rule="evenodd"/></g></svg>