<svg width="140" height="141" xmlns="http://www.w3.org/2000/svg" xmlns:xlink="http://www.w3.org/1999/xlink" overflow="hidden"><defs><clipPath id="clip0"><rect x="165" y="373" width="140" height="141"/></clipPath><clipPath id="clip1"><rect x="187" y="395" width="96" height="96"/></clipPath><clipPath id="clip2"><rect x="187" y="395" width="96" height="96"/></clipPath><clipPath id="clip3"><rect x="187" y="395" width="96" height="96"/></clipPath></defs><g clip-path="url(#clip0)" transform="translate(-165 -373)"><path d="M165 443.5C165 405.116 196.34 374 235 374 273.66 374 305 405.116 305 443.5 305 481.884 273.66 513 235 513 196.34 513 165 481.884 165 443.5Z" fill="#5B9BD5" fill-rule="evenodd"/><g clip-path="url(#clip1)"><g clip-path="url(#clip2)"><g clip-path="url(#clip3)"><path d="M212 466.1C214 468.1 214 471.2 212 473.2L203.5 476 202 474.5 204.8 466C206.9 464.1 210 464.1 212 466.1ZM251.3 413.9 201.3 464 195 483 214.1 476.7 264.1 426.7" fill="#FFFFFF"/><path d="M273.9 411.2 266.8 404.1C265.2 402.5 262.7 402.5 261.1 404.1L254.1 411.1 266.8 423.8 273.8 416.8C275.5 415.3 275.5 412.8 273.9 411.2Z" fill="#FFFFFF"/></g></g></g></g></svg>