<svg width="140" height="141" xmlns="http://www.w3.org/2000/svg" xmlns:xlink="http://www.w3.org/1999/xlink" overflow="hidden"><defs><clipPath id="clip0"><rect x="373" y="373" width="140" height="141"/></clipPath></defs><g clip-path="url(#clip0)" transform="translate(-373 -373)"><path d="M373 443.5C373 405.116 404.34 374 443 374 481.66 374 513 405.116 513 443.5 513 481.884 481.66 513 443 513 404.34 513 373 481.884 373 443.5Z" fill="#FF0000" fill-rule="evenodd"/><path d="M395 435.833C395 433.716 396.716 432 398.833 432L487.167 432C489.284 432 491 433.716 491 435.833L491 451.167C491 453.284 489.284 455 487.167 455L398.833 455C396.716 455 395 453.284 395 451.167Z" fill="#FFFFFF" fill-rule="evenodd"/></g></svg>