<svg width="1084" height="388" xmlns="http://www.w3.org/2000/svg" xmlns:xlink="http://www.w3.org/1999/xlink" overflow="hidden"><defs><clipPath id="clip0"><rect x="176" y="292" width="1084" height="388"/></clipPath><clipPath id="clip1"><rect x="176" y="360" width="183" height="182"/></clipPath><clipPath id="clip2"><rect x="176" y="360" width="183" height="182"/></clipPath><clipPath id="clip3"><rect x="106" y="328" width="280" height="279"/></clipPath></defs><g clip-path="url(#clip0)" transform="translate(-176 -292)"><g clip-path="url(#clip1)"><g clip-path="url(#clip2)"><g clip-path="url(#clip3)"><path d="M40.5117 219.921 237.283 219.921 237.283 237.283 40.5117 237.283Z" fill="#FFCD38" transform="matrix(1.00562 0 0 1 106.024 328.676)"/><path d="M40.5117 40.5117 63.6613 40.5117 63.6613 208.346 40.5117 208.346Z" fill="#FFCD38" transform="matrix(1.00562 0 0 1 106.024 328.676)"/><path d="M185.196 185.196 237.283 185.196 237.283 208.346 185.196 208.346Z" fill="#FFCD38" transform="matrix(1.00562 0 0 1 106.024 328.676)"/><path d="M185.196 86.8109 237.283 86.8109 237.283 173.622 185.196 173.622Z" fill="#FFCD38" transform="matrix(1.00562 0 0 1 106.024 328.676)"/><path d="M185.196 52.0865 237.283 52.0865 237.283 75.2361 185.196 75.2361Z" fill="#FFCD38" transform="matrix(1.00562 0 0 1 106.024 328.676)"/><path d="M150.472 104.173C147.289 104.173 144.685 101.569 144.685 98.3856 144.685 95.2026 147.289 92.5982 150.472 92.5982 153.655 92.5982 156.26 95.2026 156.26 98.3856 156.26 101.569 153.655 104.173 150.472 104.173ZM150.472 196.771C147.289 196.771 144.685 194.167 144.685 190.984 144.685 187.801 147.289 185.196 150.472 185.196 153.655 185.196 156.26 187.801 156.26 190.984 156.26 194.167 153.655 196.771 150.472 196.771ZM173.622 81.0235 127.323 81.0235 127.323 208.346 173.622 208.346 173.622 81.0235Z" fill="#FFCD38" transform="matrix(1.00562 0 0 1 106.024 328.676)"/><path d="M104.173 86.8109 86.8109 86.8109 86.8109 69.4487 104.173 69.4487 104.173 86.8109ZM115.748 57.8739 75.2361 57.8739 75.2361 208.346 115.748 208.346 115.748 57.8739Z" fill="#FFCD38" transform="matrix(1.00562 0 0 1 106.024 328.676)"/></g></g></g><text fill="#4A4A4A" font-family="Calibri,Calibri_MSFontService,sans-serif" font-weight="700" font-size="184" transform="translate(394.672 520)">exam<tspan fill="#5B9BD5" font-size="184" x="411.92" y="0">able</tspan></text></g></svg>