<svg width="175" height="168" xmlns="http://www.w3.org/2000/svg" xmlns:xlink="http://www.w3.org/1999/xlink" overflow="hidden"><defs><clipPath id="clip0"><rect x="176" y="375" width="175" height="168"/></clipPath><clipPath id="clip1"><rect x="176" y="376" width="174" height="166"/></clipPath><clipPath id="clip2"><rect x="176" y="376" width="174" height="166"/></clipPath></defs><g clip-path="url(#clip0)" transform="translate(-176 -375)"><g clip-path="url(#clip1)"><g clip-path="url(#clip2)"><path d="M40.4099 219.368 236.686 219.368 236.686 236.686 40.4099 236.686Z" fill="#FFCD38" transform="matrix(1.00456 0 0 1 106.271 329.212)"/><path d="M40.4099 40.4099 63.5012 40.4099 63.5012 207.822 40.4099 207.822Z" fill="#FFCD38" transform="matrix(1.00456 0 0 1 106.271 329.212)"/><path d="M184.731 184.731 236.686 184.731 236.686 207.822 184.731 207.822Z" fill="#FFCD38" transform="matrix(1.00456 0 0 1 106.271 329.212)"/><path d="M184.731 86.5926 236.686 86.5926 236.686 173.185 184.731 173.185Z" fill="#FFCD38" transform="matrix(1.00456 0 0 1 106.271 329.212)"/><path d="M184.731 51.9555 236.686 51.9555 236.686 75.0469 184.731 75.0469Z" fill="#FFCD38" transform="matrix(1.00456 0 0 1 106.271 329.212)"/><path d="M150.094 103.911C146.919 103.911 144.321 101.313 144.321 98.1382 144.321 94.9632 146.919 92.3654 150.094 92.3654 153.269 92.3654 155.867 94.9632 155.867 98.1382 155.867 101.313 153.269 103.911 150.094 103.911ZM150.094 196.276C146.919 196.276 144.321 193.679 144.321 190.504 144.321 187.329 146.919 184.731 150.094 184.731 153.269 184.731 155.867 187.329 155.867 190.504 155.867 193.679 153.269 196.276 150.094 196.276ZM173.185 80.8197 127.002 80.8197 127.002 207.822 173.185 207.822 173.185 80.8197Z" fill="#FFCD38" transform="matrix(1.00456 0 0 1 106.271 329.212)"/><path d="M103.911 86.5926 86.5926 86.5926 86.5926 69.274 103.911 69.274 103.911 86.5926ZM115.457 57.7284 75.0469 57.7284 75.0469 207.822 115.457 207.822 115.457 57.7284Z" fill="#FFCD38" transform="matrix(1.00456 0 0 1 106.271 329.212)"/></g></g></g></svg>